PathFileType	4	(X/Y/Z)	OpenSim_Sub01_EMGStiffKnee_Accel.trc
DataRate	CameraRate	NumFrames	NumMarkers	Units	OrigDataRate	OrigDataStartFrame	OrigNumFrames
100	100	13	8	m	100	4176	5567
Frame#	Time	torso_imu_offset_imu	pelvis_imu_offset_imu	tibia_r_imu_offset_imu	femur_r_imu_offset_imu	tibia_l_imu_offset_imu	femur_l_imu_offset_imu	toes_r_imu_offset_imu	toes_l_imu_offset_imu
				X1	Y1	Z1	X2	Y2	Z2	X3	Y3	Z3	X4	Y4	Z4	X5	Y5	Z5	X6	Y6	Z6	X7	Y7	Z7	X8		Y8	Z8	

4176	41.75000000	12.40499895	-0.70821738	7.17521437	13.15440964	0.52157780	4.78356205	13.29783617	0.78521601	2.96267120	11.93273579	-0.86888560	-0.70304515	16.64930812	1.56757694	2.52970283	17.97158430	2.00537667	-0.56002497	5.41478694	-1.68448424	8.36426759	8.28149626	-0.50761845	16.33619363
4177	41.76000000	13.10719582	-0.30183731	7.38749090	13.78153088	0.04880754	5.41343096	14.40174667	-0.22193762	3.06587788	12.96532801	-0.84660553	-0.84998192	17.29333363	-0.70983772	4.25176070	17.76662570	3.03879621	-0.38801699	5.33143134	-2.49906969	8.36434817	9.95797332	-1.55192328	15.45459954
4178	41.77000000	13.27854438	-0.06744210	7.47191471	13.79823568	-0.13511260	5.47408708	15.02812265	-1.33986657	2.68936302	13.36424822	-0.80182528	-0.72946679	14.97054206	-3.48974757	4.22299422	15.40666932	3.63038811	-0.00579892	5.91082372	-3.39021401	8.12205565	9.81864242	-1.71805902	13.74327915
4179	41.78000000	12.89004781	0.00631630	7.35878750	13.20819174	0.03432866	5.09258366	14.98443401	-2.30875992	1.88719317	12.98390891	-0.80462892	-0.40894337	10.51120768	-5.83024937	2.47052576	11.80598596	3.54887127	0.41203303	7.06367734	-4.24342861	7.79529971	8.03855426	-0.90483637	12.00279875
4180	41.79000000	12.11256572	0.01039986	7.02858265	12.24446115	0.51545348	4.67514950	14.22225015	-2.86734294	0.83427809	11.96733671	-0.93978124	-0.11426331	6.74166258	-6.72463215	0.30979195	8.82651005	2.79747061	0.51578773	8.36343448	-4.97788912	7.72142065	6.75765211	0.51134252	11.29204245
4181	41.80000000	11.12251929	0.03314584	6.51184191	11.11815675	1.21548669	4.50441270	12.82774059	-2.84268995	-0.27591987	10.52694773	-1.22293240	-0.00699209	5.63447605	-5.80248063	-1.23227794	7.71405564	1.48446062	0.05138769	9.55847972	-5.46352925	8.05492735	7.34377641	2.07621553	12.12682855
4182	41.81000000	10.09757924	0.14900694	5.98404631	9.95763705	1.89793804	4.47439277	11.27601424	-2.32450944	-1.20404739	9.05928327	-1.46324184	-0.04556573	6.47275909	-4.58903595	-2.08450431	7.81124843	0.01233767	-0.93775273	10.94280418	-5.42139103	8.39334461	8.72033742	3.14067062	13.38955330
4183	41.82000000	9.21107435	0.42202733	5.63662420	8.87816116	2.31268877	4.41729244	10.09326658	-1.44085769	-1.72170220	7.98224556	-1.44127280	-0.14653958	8.06263996	-4.82396729	-2.34787191	8.15141188	-1.18142136	-2.33335840	12.84952871	-4.61405357	8.30114865	9.43161561	3.07551315	13.74100103
4184	41.83000000	8.56790802	0.79891936	5.49865984	8.02791538	2.40327393	4.31540717	9.49412863	-0.16703082	-1.89129571	7.52399154	-1.08094564	-0.16175094	9.51334779	-6.21123868	-2.05544795	8.40481223	-1.94986937	-3.72000386	14.68789264	-3.83751086	8.38916365	9.11131063	2.08860874	13.04471883
4185	41.84000000	8.22028661	1.13610074	5.47427806	7.58036774	2.26229270	4.26654457	9.45330955	1.63909707	-1.99897863	7.76653738	-0.41654708	0.10667564	10.16770521	-6.88830592	-1.18814550	8.73199260	-2.36964941	-4.45371124	15.15626007	-4.68260731	10.07304871	8.23171122	1.03200366	12.08998797
4186	41.85000000	8.18849658	1.32442614	5.48217873	7.62240336	1.97164569	4.33228181	9.83456011	3.89298299	-2.16469595	8.68927895	0.50183625	0.71548480	9.72733536	-5.72419509	0.10334516	9.24913782	-2.44316908	-4.14276575	13.37332624	-7.86573917	13.93221819	7.22302890	0.52220865	11.48429544
4187	41.86000000	8.40200482	1.36397841	5.49392155	7.98170066	1.57004984	4.45771104	10.19026532	5.82757996	-1.99742370	9.97785425	1.58560541	1.29826237	8.94215425	-3.88147247	1.15986773	9.90315104	-1.93516100	-3.16250198	9.76110347	-11.44419398	17.99973290	6.32634832	0.42662096	11.22418196
4188	41.87000000	8.77137901	1.27589473	5.49329178	8.44264735	1.09001883	4.56957197	10.04494546	6.60435627	-1.06237406	11.26754450	2.73469947	1.44049806	8.70351587	-2.86245853	1.27986884	10.59970891	-0.60408558	-2.01907657	5.01986678	-13.11182158	19.98248293	5.73453804	0.48549425	11.19281639
